<mxfile host="app.diagrams.net" modified="2025-01-27T12:00:00.000Z" agent="5.0" version="22.1.0" etag="draw-id" type="device">
  <diagram name="Security Architecture" id="security-architecture">
    <mxGraphModel dx="1600" dy="900" grid="1" gridSize="10" guides="1" tooltips="1" connect="1" arrows="1" fold="1" page="1" pageScale="1" pageWidth="1600" pageHeight="900" math="0" shadow="0">
      <root>
        <mxCell id="0" />
        <mxCell id="1" parent="0" />
        
        <mxCell id="title" value="Fraud Switch - Security Architecture and PCI Compliance" style="text;html=1;strokeColor=none;fillColor=none;align=center;verticalAlign=middle;whiteSpace=wrap;rounded=0;fontSize=24;fontStyle=1" vertex="1" parent="1">
          <mxGeometry x="400" y="20" width="800" height="40" as="geometry" />
        </mxCell>
        
        <mxCell id="legend-box" value="" style="rounded=1;whiteSpace=wrap;html=1;fillColor=#f5f5f5;strokeColor=#666666;dashed=1;" vertex="1" parent="1">
          <mxGeometry x="40" y="80" width="320" height="120" as="geometry" />
        </mxCell>
        <mxCell id="legend-title" value="Legend" style="text;html=1;strokeColor=none;fillColor=none;align=left;verticalAlign=middle;whiteSpace=wrap;rounded=0;fontSize=14;fontStyle=1" vertex="1" parent="1">
          <mxGeometry x="50" y="90" width="100" height="20" as="geometry" />
        </mxCell>
        <mxCell id="legend-pci" value="PCI Compliant Zone (Clear PAN)" style="text;html=1;strokeColor=none;fillColor=none;align=left;verticalAlign=middle;whiteSpace=wrap;rounded=0;fontSize=11;" vertex="1" parent="1">
          <mxGeometry x="100" y="120" width="220" height="20" as="geometry" />
        </mxCell>
        <mxCell id="legend-encrypted" value="Encrypted PAN Zone" style="text;html=1;strokeColor=none;fillColor=none;align=left;verticalAlign=middle;whiteSpace=wrap;rounded=0;fontSize=11;" vertex="1" parent="1">
          <mxGeometry x="100" y="145" width="180" height="20" as="geometry" />
        </mxCell>
        <mxCell id="legend-hashed" value="Hashed PAN Zone (SHA-256)" style="text;html=1;strokeColor=none;fillColor=none;align=left;verticalAlign=middle;whiteSpace=wrap;rounded=0;fontSize=11;" vertex="1" parent="1">
          <mxGeometry x="100" y="170" width="200" height="20" as="geometry" />
        </mxCell>
        <mxCell id="legend-pci-box" value="" style="rounded=1;whiteSpace=wrap;html=1;fillColor=#ffe6cc;strokeColor=#d79b00;strokeWidth=3;" vertex="1" parent="1">
          <mxGeometry x="50" y="115" width="40" height="30" as="geometry" />
        </mxCell>
        <mxCell id="legend-encrypted-box" value="" style="rounded=1;whiteSpace=wrap;html=1;fillColor=#dae8fc;strokeColor=#6c8ebf;strokeWidth=2;" vertex="1" parent="1">
          <mxGeometry x="50" y="140" width="40" height="30" as="geometry" />
        </mxCell>
        <mxCell id="legend-hashed-box" value="" style="rounded=1;whiteSpace=wrap;html=1;fillColor=#d5e8d4;strokeColor=#82b366;strokeWidth=2;" vertex="1" parent="1">
          <mxGeometry x="50" y="165" width="40" height="30" as="geometry" />
        </mxCell>

        <mxCell id="pci-boundary-label" value="PCI COMPLIANT ZONE - Clear PAN Processing" style="text;html=1;strokeColor=none;fillColor=none;align=left;verticalAlign=middle;whiteSpace=wrap;rounded=0;fontSize=16;fontStyle=1;fontColor=#CC6600;" vertex="1" parent="1">
          <mxGeometry x="40" y="230" width="500" height="30" as="geometry" />
        </mxCell>
        
        <mxCell id="pci-zone" value="" style="rounded=1;whiteSpace=wrap;html=1;fillColor=#ffe6cc;strokeColor=#d79b00;strokeWidth=3;opacity=30;" vertex="1" parent="1">
          <mxGeometry x="40" y="270" width="520" height="280" as="geometry" />
        </mxCell>
        
        <mxCell id="fraud-router-pci" value="Fraud Router&#xa;(60 pods)&#xa;&#xa;Clear PAN&#xa;in memory only&#xa;&#xa;Transit time:&#xa;&lt;50ms" style="rounded=1;whiteSpace=wrap;html=1;fillColor=#ffe6cc;strokeColor=#d79b00;verticalAlign=top;fontSize=11;fontStyle=1;strokeWidth=2;" vertex="1" parent="1">
          <mxGeometry x="80" y="300" width="150" height="130" as="geometry" />
        </mxCell>
        
        <mxCell id="tokenization-service" value="Tokenization Service&#xa;(20 pods)&#xa;&#xa;ONLY service with&#xa;clear PAN access&#xa;&#xa;Encrypt/Decrypt&#xa;operations&#xa;&#xa;Audit logging" style="rounded=1;whiteSpace=wrap;html=1;fillColor=#ffe6cc;strokeColor=#d79b00;verticalAlign=top;fontSize=11;fontStyle=1;strokeWidth=2;" vertex="1" parent="1">
          <mxGeometry x="360" y="300" width="170" height="150" as="geometry" />
        </mxCell>
        
        <mxCell id="pan-queue" value="pan.queue&#xa;(Kafka Topic)&#xa;&#xa;Clear PAN&#xa;10 partitions&#xa;1-hour retention" style="rounded=1;whiteSpace=wrap;html=1;fillColor=#ffe6cc;strokeColor=#d79b00;verticalAlign=top;fontSize=11;fontStyle=1;strokeWidth=2;" vertex="1" parent="1">
          <mxGeometry x="260" y="300" width="140" height="110" as="geometry" />
        </mxCell>
        
        <mxCell id="router-to-pan-queue" value="Publish&#xa;Clear PAN" style="endArrow=classic;html=1;exitX=1;exitY=0.5;exitDx=0;exitDy=0;entryX=0;entryY=0.5;entryDx=0;entryDy=0;strokeWidth=3;strokeColor=#CC6600;fontSize=10;" edge="1" parent="1" source="fraud-router-pci" target="pan-queue">
          <mxGeometry x="0.1" width="50" height="50" relative="1" as="geometry">
            <mxPoint x="300" y="400" as="sourcePoint" />
            <mxPoint x="350" y="350" as="targetPoint" />
            <mxPoint as="offset" />
          </mxGeometry>
        </mxCell>
        
        <mxCell id="pan-queue-to-tokenization" value="Consume&#xa;Clear PAN" style="endArrow=classic;html=1;exitX=1;exitY=0.5;exitDx=0;exitDy=0;entryX=0;entryY=0.3;entryDx=0;entryDy=0;strokeWidth=3;strokeColor=#CC6600;fontSize=10;" edge="1" parent="1" source="pan-queue" target="tokenization-service">
          <mxGeometry x="0.1" width="50" height="50" relative="1" as="geometry">
            <mxPoint x="400" y="400" as="sourcePoint" />
            <mxPoint x="450" y="350" as="targetPoint" />
            <mxPoint as="offset" />
          </mxGeometry>
        </mxCell>
        
        <mxCell id="pci-note" value="CRITICAL: Only these 3 components&#xa;handle clear PAN. All other services&#xa;use hashed (SHA-256) or encrypted&#xa;PAN values." style="text;html=1;strokeColor=#d79b00;fillColor=#fff2cc;align=left;verticalAlign=middle;whiteSpace=wrap;rounded=1;fontSize=11;fontStyle=1" vertex="1" parent="1">
          <mxGeometry x="80" y="450" width="280" height="70" as="geometry" />
        </mxCell>

        <mxCell id="encryption-label" value="ENVELOPE ENCRYPTION - AES-256-GCM with AWS KMS" style="text;html=1;strokeColor=none;fillColor=none;align=left;verticalAlign=middle;whiteSpace=wrap;rounded=0;fontSize=16;fontStyle=1;fontColor=#0066CC;" vertex="1" parent="1">
          <mxGeometry x="620" y="230" width="600" height="30" as="geometry" />
        </mxCell>
        
        <mxCell id="kms-master-key" value="AWS KMS&#xa;Master Key&#xa;&#xa;Regional&#xa;(per AZ)&#xa;&#xa;Never leaves KMS" style="rounded=1;whiteSpace=wrap;html=1;fillColor=#fff2cc;strokeColor=#d6b656;verticalAlign=top;fontSize=11;fontStyle=1;strokeWidth=2;" vertex="1" parent="1">
          <mxGeometry x="640" y="280" width="140" height="120" as="geometry" />
        </mxCell>
        
        <mxCell id="dek-generation" value="DEK Generation&#xa;&#xa;1. Request DEK from KMS&#xa;2. KMS generates random&#xa;   256-bit key&#xa;3. KMS encrypts DEK with&#xa;   master key&#xa;4. Returns plaintext DEK&#xa;   + encrypted DEK" style="rounded=1;whiteSpace=wrap;html=1;fillColor=#dae8fc;strokeColor=#6c8ebf;verticalAlign=top;fontSize=10;align=left;strokeWidth=2;" vertex="1" parent="1">
          <mxGeometry x="820" y="280" width="180" height="140" as="geometry" />
        </mxCell>
        
        <mxCell id="kms-to-dek" value="GenerateDataKey&#xa;API call" style="endArrow=classic;html=1;exitX=1;exitY=0.5;exitDx=0;exitDy=0;entryX=0;entryY=0.5;entryDx=0;entryDy=0;strokeWidth=2;strokeColor=#0066CC;fontSize=10;" edge="1" parent="1" source="kms-master-key" target="dek-generation">
          <mxGeometry x="0.1" width="50" height="50" relative="1" as="geometry">
            <mxPoint x="800" y="400" as="sourcePoint" />
            <mxPoint x="850" y="350" as="targetPoint" />
            <mxPoint as="offset" />
          </mxGeometry>
        </mxCell>
        
        <mxCell id="dek-cache" value="DEK Cache&#xa;(In-Memory)&#xa;&#xa;Active DEK:&#xa;current_dek_id&#xa;plaintext_dek&#xa;encrypted_dek&#xa;created_at&#xa;&#xa;TTL: 30 minutes" style="rounded=1;whiteSpace=wrap;html=1;fillColor=#dae8fc;strokeColor=#6c8ebf;verticalAlign=top;fontSize=10;fontStyle=1;strokeWidth=2;" vertex="1" parent="1">
          <mxGeometry x="1040" y="280" width="160" height="160" as="geometry" />
        </mxCell>
        
        <mxCell id="dek-gen-to-cache" value="Store active&#xa;DEK" style="endArrow=classic;html=1;exitX=1;exitY=0.5;exitDx=0;exitDy=0;entryX=0;entryY=0.3;entryDx=0;entryDy=0;strokeWidth=2;strokeColor=#0066CC;fontSize=10;" edge="1" parent="1" source="dek-generation" target="dek-cache">
          <mxGeometry x="0.1" width="50" height="50" relative="1" as="geometry">
            <mxPoint x="1000" y="400" as="sourcePoint" />
            <mxPoint x="1050" y="350" as="targetPoint" />
            <mxPoint as="offset" />
          </mxGeometry>
        </mxCell>
        
        <mxCell id="encryption-operation" value="PAN Encryption&#xa;&#xa;1. Retrieve active DEK from cache&#xa;2. Encrypt clear PAN with DEK&#xa;   using AES-256-GCM&#xa;3. Generate IV (96-bit random)&#xa;4. Compute auth tag&#xa;5. Store: encrypted_dek_id,&#xa;   encrypted_pan, iv, auth_tag" style="rounded=1;whiteSpace=wrap;html=1;fillColor=#dae8fc;strokeColor=#6c8ebf;verticalAlign=top;fontSize=10;align=left;strokeWidth=2;" vertex="1" parent="1">
          <mxGeometry x="1240" y="280" width="220" height="160" as="geometry" />
        </mxCell>
        
        <mxCell id="cache-to-encryption" value="Read DEK" style="endArrow=classic;html=1;exitX=1;exitY=0.5;exitDx=0;exitDy=0;entryX=0;entryY=0.3;entryDx=0;entryDy=0;strokeWidth=2;strokeColor=#0066CC;fontSize=10;" edge="1" parent="1" source="dek-cache" target="encryption-operation">
          <mxGeometry x="0.1" width="50" height="50" relative="1" as="geometry">
            <mxPoint x="1200" y="400" as="sourcePoint" />
            <mxPoint x="1250" y="350" as="targetPoint" />
            <mxPoint as="offset" />
          </mxGeometry>
        </mxCell>
        
        <mxCell id="tokenization-to-encryption" value="Encrypt&#xa;request" style="endArrow=classic;html=1;exitX=1;exitY=0.7;exitDx=0;exitDy=0;entryX=0;entryY=0.7;entryDx=0;entryDy=0;strokeWidth=2;strokeColor=#CC6600;fontSize=10;dashed=1;edgeStyle=orthogonalEdgeStyle;" edge="1" parent="1" source="tokenization-service" target="encryption-operation">
          <mxGeometry x="0.1" width="50" height="50" relative="1" as="geometry">
            <mxPoint x="600" y="450" as="sourcePoint" />
            <mxPoint x="650" y="400" as="targetPoint" />
            <mxPoint as="offset" />
            <Array as="points">
              <mxPoint x="580" y="405" />
              <mxPoint x="580" y="480" />
              <mxPoint x="1220" y="480" />
              <mxPoint x="1220" y="392" />
            </Array>
          </mxGeometry>
        </mxCell>

        <mxCell id="storage-label" value="ENCRYPTED STORAGE - Aurora PostgreSQL" style="text;html=1;strokeColor=none;fillColor=none;align=left;verticalAlign=middle;whiteSpace=wrap;rounded=0;fontSize=16;fontStyle=1;fontColor=#006600;" vertex="1" parent="1">
          <mxGeometry x="620" y="470" width="500" height="30" as="geometry" />
        </mxCell>
        
        <mxCell id="aurora-db" value="" style="shape=cylinder3;whiteSpace=wrap;html=1;boundedLbl=1;backgroundOutline=1;size=15;fillColor=#d5e8d4;strokeColor=#82b366;strokeWidth=2;" vertex="1" parent="1">
          <mxGeometry x="640" y="520" width="100" height="120" as="geometry" />
        </mxCell>
        <mxCell id="aurora-label" value="Aurora&#xa;PostgreSQL&#xa;&#xa;pan_tokens&#xa;table" style="text;html=1;strokeColor=none;fillColor=none;align=center;verticalAlign=middle;whiteSpace=wrap;rounded=0;fontSize=11;fontStyle=1" vertex="1" parent="1">
          <mxGeometry x="640" y="645" width="100" height="80" as="geometry" />
        </mxCell>
        
        <mxCell id="pan-tokens-table" value="pan_tokens Table Schema&#xa;&#xa;pan_hash (PK)         VARCHAR(64)&#xa;encrypted_dek_id      UUID&#xa;encrypted_pan         BYTEA&#xa;iv                    BYTEA(12)&#xa;auth_tag              BYTEA(16)&#xa;masked_pan            VARCHAR(19)&#xa;bin                   VARCHAR(8)&#xa;last4                 VARCHAR(4)&#xa;created_at            TIMESTAMP&#xa;expires_at            TIMESTAMP" style="rounded=1;whiteSpace=wrap;html=1;fillColor=#d5e8d4;strokeColor=#82b366;verticalAlign=top;fontSize=10;align=left;fontStyle=1;strokeWidth=2;" vertex="1" parent="1">
          <mxGeometry x="780" y="520" width="280" height="200" as="geometry" />
        </mxCell>
        
        <mxCell id="encryption-to-aurora" value="INSERT" style="endArrow=classic;html=1;exitX=0;exitY=1;exitDx=0;exitDy=0;entryX=1;entryY=0.3;entryDx=0;entryDy=0;strokeWidth=2;strokeColor=#009900;fontSize=10;edgeStyle=orthogonalEdgeStyle;" edge="1" parent="1" source="encryption-operation" target="pan-tokens-table">
          <mxGeometry x="0.1" width="50" height="50" relative="1" as="geometry">
            <mxPoint x="1100" y="600" as="sourcePoint" />
            <mxPoint x="1150" y="550" as="targetPoint" />
            <mxPoint as="offset" />
            <Array as="points">
              <mxPoint x="1240" y="500" />
              <mxPoint x="1100" y="500" />
              <mxPoint x="1100" y="580" />
            </Array>
          </mxGeometry>
        </mxCell>
        
        <mxCell id="dek-metadata-table" value="dek_metadata Table&#xa;&#xa;dek_id (PK)          UUID&#xa;encrypted_dek        BYTEA&#xa;created_at           TIMESTAMP&#xa;expires_at           TIMESTAMP&#xa;status               ENUM&#xa;rotation_batch_id    UUID" style="rounded=1;whiteSpace=wrap;html=1;fillColor=#d5e8d4;strokeColor=#82b366;verticalAlign=top;fontSize=10;align=left;fontStyle=1;strokeWidth=2;" vertex="1" parent="1">
          <mxGeometry x="1100" y="520" width="220" height="150" as="geometry" />
        </mxCell>

        <mxCell id="rotation-label" value="DEK ROTATION CYCLE - Every 30 Minutes" style="text;html=1;strokeColor=none;fillColor=none;align=left;verticalAlign=middle;whiteSpace=wrap;rounded=0;fontSize=16;fontStyle=1;fontColor=#CC0000;" vertex="1" parent="1">
          <mxGeometry x="40" y="600" width="500" height="30" as="geometry" />
        </mxCell>
        
        <mxCell id="rotation-timeline" value="" style="rounded=0;whiteSpace=wrap;html=1;fillColor=none;strokeColor=#CC0000;strokeWidth=3;" vertex="1" parent="1">
          <mxGeometry x="40" y="650" width="520" height="200" as="geometry" />
        </mxCell>
        
        <mxCell id="rotation-timeline-label" value="Rotation Timeline (30-minute cycle)" style="text;html=1;strokeColor=none;fillColor=none;align=center;verticalAlign=middle;whiteSpace=wrap;rounded=0;fontSize=12;fontStyle=1" vertex="1" parent="1">
          <mxGeometry x="180" y="660" width="240" height="20" as="geometry" />
        </mxCell>
        
        <mxCell id="rotation-step1" value="T+0: Leader Election&#xa;&#xa;1 pod acquires lock&#xa;in dek_rotation_lock table&#xa;&#xa;Uses pessimistic locking:&#xa;SELECT FOR UPDATE SKIP LOCKED" style="rounded=1;whiteSpace=wrap;html=1;fillColor=#fff2cc;strokeColor=#d6b656;verticalAlign=top;fontSize=9;align=left;strokeWidth=2;" vertex="1" parent="1">
          <mxGeometry x="60" y="700" width="150" height="130" as="geometry" />
        </mxCell>
        
        <mxCell id="rotation-step2" value="T+5s: Generate New DEK&#xa;&#xa;Leader calls KMS&#xa;GenerateDataKey&#xa;&#xa;Stores encrypted_dek in&#xa;dek_metadata table&#xa;&#xa;Status: ACTIVE" style="rounded=1;whiteSpace=wrap;html=1;fillColor=#dae8fc;strokeColor=#6c8ebf;verticalAlign=top;fontSize=9;align=left;strokeWidth=2;" vertex="1" parent="1">
          <mxGeometry x="230" y="700" width="150" height="130" as="geometry" />
        </mxCell>
        
        <mxCell id="rotation-step3" value="T+10s: Broadcast&#xa;&#xa;Publish new DEK to&#xa;dek.rotation topic&#xa;&#xa;All 60 pods consume&#xa;and update cache&#xa;&#xa;Old DEK: EXPIRED" style="rounded=1;whiteSpace=wrap;html=1;fillColor=#d5e8d4;strokeColor=#82b366;verticalAlign=top;fontSize=9;align=left;strokeWidth=2;" vertex="1" parent="1">
          <mxGeometry x="400" y="700" width="140" height="130" as="geometry" />
        </mxCell>
        
        <mxCell id="rotation-arrow1" value="" style="endArrow=classic;html=1;exitX=1;exitY=0.5;exitDx=0;exitDy=0;entryX=0;entryY=0.5;entryDx=0;entryDy=0;strokeWidth=3;strokeColor=#CC0000;" edge="1" parent="1" source="rotation-step1" target="rotation-step2">
          <mxGeometry width="50" height="50" relative="1" as="geometry">
            <mxPoint x="300" y="780" as="sourcePoint" />
            <mxPoint x="350" y="730" as="targetPoint" />
          </mxGeometry>
        </mxCell>
        
        <mxCell id="rotation-arrow2" value="" style="endArrow=classic;html=1;exitX=1;exitY=0.5;exitDx=0;exitDy=0;entryX=0;entryY=0.5;entryDx=0;entryDy=0;strokeWidth=3;strokeColor=#CC0000;" edge="1" parent="1" source="rotation-step2" target="rotation-step3">
          <mxGeometry width="50" height="50" relative="1" as="geometry">
            <mxPoint x="400" y="780" as="sourcePoint" />
            <mxPoint x="450" y="730" as="targetPoint" />
          </mxGeometry>
        </mxCell>

        <mxCell id="decryption-label" value="DECRYPTION FLOW - On-Demand PAN Retrieval" style="text;html=1;strokeColor=none;fillColor=none;align=left;verticalAlign=middle;whiteSpace=wrap;rounded=0;fontSize=16;fontStyle=1;fontColor=#9900CC;" vertex="1" parent="1">
          <mxGeometry x="620" y="750" width="500" height="30" as="geometry" />
        </mxCell>
        
        <mxCell id="decryption-flow" value="" style="rounded=0;whiteSpace=wrap;html=1;fillColor=none;strokeColor=#9900CC;strokeWidth=3;" vertex="1" parent="1">
          <mxGeometry x="620" y="790" width="700" height="70" as="geometry" />
        </mxCell>
        
        <mxCell id="decrypt-step1" value="1. Lookup&#xa;pan_hash" style="rounded=1;whiteSpace=wrap;html=1;fillColor=#e1d5e7;strokeColor=#9673a6;verticalAlign=middle;fontSize=10;fontStyle=1;strokeWidth=2;" vertex="1" parent="1">
          <mxGeometry x="640" y="800" width="100" height="50" as="geometry" />
        </mxCell>
        
        <mxCell id="decrypt-step2" value="2. Retrieve&#xa;encrypted_dek" style="rounded=1;whiteSpace=wrap;html=1;fillColor=#e1d5e7;strokeColor=#9673a6;verticalAlign=middle;fontSize=10;fontStyle=1;strokeWidth=2;" vertex="1" parent="1">
          <mxGeometry x="760" y="800" width="100" height="50" as="geometry" />
        </mxCell>
        
        <mxCell id="decrypt-step3" value="3. KMS decrypt&#xa;to get DEK" style="rounded=1;whiteSpace=wrap;html=1;fillColor=#e1d5e7;strokeColor=#9673a6;verticalAlign=middle;fontSize=10;fontStyle=1;strokeWidth=2;" vertex="1" parent="1">
          <mxGeometry x="880" y="800" width="100" height="50" as="geometry" />
        </mxCell>
        
        <mxCell id="decrypt-step4" value="4. Decrypt PAN&#xa;with DEK" style="rounded=1;whiteSpace=wrap;html=1;fillColor=#e1d5e7;strokeColor=#9673a6;verticalAlign=middle;fontSize=10;fontStyle=1;strokeWidth=2;" vertex="1" parent="1">
          <mxGeometry x="1000" y="800" width="100" height="50" as="geometry" />
        </mxCell>
        
        <mxCell id="decrypt-step5" value="5. Return&#xa;clear PAN" style="rounded=1;whiteSpace=wrap;html=1;fillColor=#e1d5e7;strokeColor=#9673a6;verticalAlign=middle;fontSize=10;fontStyle=1;strokeWidth=2;" vertex="1" parent="1">
          <mxGeometry x="1120" y="800" width="100" height="50" as="geometry" />
        </mxCell>
        
        <mxCell id="decrypt-step6" value="6. Audit log" style="rounded=1;whiteSpace=wrap;html=1;fillColor=#e1d5e7;strokeColor=#9673a6;verticalAlign=middle;fontSize=10;fontStyle=1;strokeWidth=2;" vertex="1" parent="1">
          <mxGeometry x="1240" y="800" width="60" height="50" as="geometry" />
        </mxCell>
        
        <mxCell id="decrypt-arrow1" value="" style="endArrow=classic;html=1;exitX=1;exitY=0.5;exitDx=0;exitDy=0;entryX=0;entryY=0.5;entryDx=0;entryDy=0;strokeWidth=2;strokeColor=#9900CC;" edge="1" parent="1" source="decrypt-step1" target="decrypt-step2">
          <mxGeometry width="50" height="50" relative="1" as="geometry">
            <mxPoint x="800" y="850" as="sourcePoint" />
            <mxPoint x="850" y="800" as="targetPoint" />
          </mxGeometry>
        </mxCell>
        
        <mxCell id="decrypt-arrow2" value="" style="endArrow=classic;html=1;exitX=1;exitY=0.5;exitDx=0;exitDy=0;entryX=0;entryY=0.5;entryDx=0;entryDy=0;strokeWidth=2;strokeColor=#9900CC;" edge="1" parent="1" source="decrypt-step2" target="decrypt-step3">
          <mxGeometry width="50" height="50" relative="1" as="geometry">
            <mxPoint x="900" y="850" as="sourcePoint" />
            <mxPoint x="950" y="800" as="targetPoint" />
          </mxGeometry>
        </mxCell>
        
        <mxCell id="decrypt-arrow3" value="" style="endArrow=classic;html=1;exitX=1;exitY=0.5;exitDx=0;exitDy=0;entryX=0;entryY=0.5;entryDx=0;entryDy=0;strokeWidth=2;strokeColor=#9900CC;" edge="1" parent="1" source="decrypt-step3" target="decrypt-step4">
          <mxGeometry width="50" height="50" relative="1" as="geometry">
            <mxPoint x="1000" y="850" as="sourcePoint" />
            <mxPoint x="1050" y="800" as="targetPoint" />
          </mxGeometry>
        </mxCell>
        
        <mxCell id="decrypt-arrow4" value="" style="endArrow=classic;html=1;exitX=1;exitY=0.5;exitDx=0;exitDy=0;entryX=0;entryY=0.5;entryDx=0;entryDy=0;strokeWidth=2;strokeColor=#9900CC;" edge="1" parent="1" source="decrypt-step4" target="decrypt-step5">
          <mxGeometry width="50" height="50" relative="1" as="geometry">
            <mxPoint x="1100" y="850" as="sourcePoint" />
            <mxPoint x="1150" y="800" as="targetPoint" />
          </mxGeometry>
        </mxCell>
        
        <mxCell id="decrypt-arrow5" value="" style="endArrow=classic;html=1;exitX=1;exitY=0.5;exitDx=0;exitDy=0;entryX=0;entryY=0.5;entryDx=0;entryDy=0;strokeWidth=2;strokeColor=#9900CC;" edge="1" parent="1" source="decrypt-step5" target="decrypt-step6">
          <mxGeometry width="50" height="50" relative="1" as="geometry">
            <mxPoint x="1200" y="850" as="sourcePoint" />
            <mxPoint x="1250" y="800" as="targetPoint" />
          </mxGeometry>
        </mxCell>

        <mxCell id="metrics-box" value="" style="rounded=1;whiteSpace=wrap;html=1;fillColor=#f5f5f5;strokeColor=#666666;dashed=1;" vertex="1" parent="1">
          <mxGeometry x="1350" y="520" width="210" height="340" as="geometry" />
        </mxCell>
        <mxCell id="metrics-title" value="Security Metrics" style="text;html=1;strokeColor=none;fillColor=none;align=left;verticalAlign=middle;whiteSpace=wrap;rounded=0;fontSize=14;fontStyle=1" vertex="1" parent="1">
          <mxGeometry x="1360" y="530" width="180" height="20" as="geometry" />
        </mxCell>
        <mxCell id="sec-metric-1" value="DEK rotation: Every 30 min" style="text;html=1;strokeColor=none;fillColor=none;align=left;verticalAlign=middle;whiteSpace=wrap;rounded=0;fontSize=10;" vertex="1" parent="1">
          <mxGeometry x="1365" y="560" width="180" height="20" as="geometry" />
        </mxCell>
        <mxCell id="sec-metric-2" value="Encryption: AES-256-GCM" style="text;html=1;strokeColor=none;fillColor=none;align=left;verticalAlign=middle;whiteSpace=wrap;rounded=0;fontSize=10;" vertex="1" parent="1">
          <mxGeometry x="1365" y="585" width="180" height="20" as="geometry" />
        </mxCell>
        <mxCell id="sec-metric-3" value="Blast radius: 30-min window" style="text;html=1;strokeColor=none;fillColor=none;align=left;verticalAlign=middle;whiteSpace=wrap;rounded=0;fontSize=10;" vertex="1" parent="1">
          <mxGeometry x="1365" y="610" width="180" height="20" as="geometry" />
        </mxCell>
        <mxCell id="sec-metric-4" value="Clear PAN TTL: &lt;50ms" style="text;html=1;strokeColor=none;fillColor=none;align=left;verticalAlign=middle;whiteSpace=wrap;rounded=0;fontSize=10;" vertex="1" parent="1">
          <mxGeometry x="1365" y="635" width="180" height="20" as="geometry" />
        </mxCell>
        <mxCell id="sec-metric-5" value="pan.queue retention: 1 hour" style="text;html=1;strokeColor=none;fillColor=none;align=left;verticalAlign=middle;whiteSpace=wrap;rounded=0;fontSize=10;" vertex="1" parent="1">
          <mxGeometry x="1365" y="660" width="180" height="20" as="geometry" />
        </mxCell>
        <mxCell id="sec-metric-6" value="Encrypted PAN retention: 6mo" style="text;html=1;strokeColor=none;fillColor=none;align=left;verticalAlign=middle;whiteSpace=wrap;rounded=0;fontSize=10;" vertex="1" parent="1">
          <mxGeometry x="1365" y="685" width="180" height="20" as="geometry" />
        </mxCell>
        <mxCell id="sec-metric-7" value="Orphaned DEK cleanup: 7d" style="text;html=1;strokeColor=none;fillColor=none;align=left;verticalAlign=middle;whiteSpace=wrap;rounded=0;fontSize=10;" vertex="1" parent="1">
          <mxGeometry x="1365" y="710" width="180" height="20" as="geometry" />
        </mxCell>
        <mxCell id="sec-metric-8" value="Rotation efficiency: 90%+" style="text;html=1;strokeColor=none;fillColor=none;align=left;verticalAlign=middle;whiteSpace=wrap;rounded=0;fontSize=10;" vertex="1" parent="1">
          <mxGeometry x="1365" y="735" width="180" height="20" as="geometry" />
        </mxCell>
        <mxCell id="sec-metric-9" value="Lock acquisition: &lt;500ms" style="text;html=1;strokeColor=none;fillColor=none;align=left;verticalAlign=middle;whiteSpace=wrap;rounded=0;fontSize=10;" vertex="1" parent="1">
          <mxGeometry x="1365" y="760" width="180" height="20" as="geometry" />
        </mxCell>
        <mxCell id="sec-metric-10" value="Audit: All decrypt operations" style="text;html=1;strokeColor=none;fillColor=none;align=left;verticalAlign=middle;whiteSpace=wrap;rounded=0;fontSize=10;" vertex="1" parent="1">
          <mxGeometry x="1365" y="785" width="180" height="20" as="geometry" />
        </mxCell>
        <mxCell id="sec-metric-11" value="PCI scope: 3 components only" style="text;html=1;strokeColor=none;fillColor=none;align=left;verticalAlign=middle;whiteSpace=wrap;rounded=0;fontSize=10;fontStyle=1" vertex="1" parent="1">
          <mxGeometry x="1365" y="810" width="180" height="20" as="geometry" />
        </mxCell>
        <mxCell id="sec-metric-12" value="KMS calls: ~2/30min (rotation)" style="text;html=1;strokeColor=none;fillColor=none;align=left;verticalAlign=middle;whiteSpace=wrap;rounded=0;fontSize=10;" vertex="1" parent="1">
          <mxGeometry x="1365" y="835" width="180" height="20" as="geometry" />
        </mxCell>

      </root>
    </mxGraphModel>
  </diagram>
</mxfile>
